<?xml version="1.0" encoding="UTF-8"?><svg id="a" xmlns="http://www.w3.org/2000/svg" viewBox="0 0 685.6391 169.3853"><defs><style>.b{fill:#407aa6;stroke-width:0px;}</style></defs><path class="b" d="m240.5025,168.8443c5.5708-.4941,10.9971-1.3105,16.1329-2.3789,13.1523-2.7353,26.3393-6.7109,38.9692-11.2754,12.2832-4.4384,35.2187-15.4297,42.9907-20.6015,6.8452-4.5547,7.4068-4.419,28.5191,6.9756,32.4687,17.5166,71.917,22.5205,108.3613,22.5966,34.1621.0723,81.7656-11.9345,98.875-44.8183,3.498-6.7324,3.6631-6.9014,6.6953-7.0254,1.6885-.0684,4.0801-.2403,5.2227-.3789,1.1562-.1387,11.3574-.6358,22.7129-1.1084,23.0507-.9571,30.3867-1.7998,41.9785-4.8106,15.0566-3.9091,29.582-11.3701,32.707-16.7939,6.5859-11.4531-4.5664-22.709-15.1563-24.2988-12.0371-1.8086-24.3066,3.1416-35.9414,5.4482-13.125,2.6025-27.2949,6.2295-40.748,6.2295l-4.124.0859-1.8741-6.0576c-2.1406-6.914-8.0585-17.2451-15.1367-26.415-12.7216-16.4805-27.4883-31.836-47.4785-39.0557-19.7051-7.1162-41.6025-6.5361-61.4531-.333-10.6035,3.3145-22.3535,7.8594-31.7266,13.9063-10.0674,6.4941-20.0722,13.8828-29.0097,21.8701-3.5274,3.1513-8.7852.7744-17.9395-.6709-17.4531-2.7578-102.2827-33.4239-132.9526-36.1123-15.2378-1.335-30.8477.1377-45.2915,5.3066-20.71,7.4121-34.9263,20.0088-49.2974,36.0967l-2.106,2.3574-7.1528-.7598c-14.8926-1.5839-30.9536-2.8076-37.436-2.8496-17.6958-.1211-35.6577.0332-52.9678,4.1084-18.439,4.3399-31.5815,12.5518-43.812,26.9815-8.7236,10.2929-19.8877,24.9355-4.1714,35.5488,6.292,4.2539,9.3379,3.3965,27.8433-7.8525,12.7846-7.7735,18.4668-10.3389,29.0263-13.0987,21.7774-5.6894,44.5889-4.6523,66.8536-3.5273,2.3896.1211,7.6103-.5693,9.7856.791.3154.1973.8325,1.7959,1.1211,3.4785,2.061,12.1699,8.3315,29.7793,15.7886,44.336,15.1347,29.5429,50.9575,36.873,82.1923,34.1054Zm-30.0229-8.831c-2.2139-.626-4.2227-1.4629-5.9023-2.5596-2.815-1.8379-6.3145-8.3301-6.8028-12.6211-.4155-3.7012-.373-3.7851,2.0093-3.7851,9.2036,0,18.4048,2.4707,27.7656,2.5244l4.5821,4.415c2.5224,2.4316,6.0991,5.5908,7.9531,7.0264,2.8589,2.2158,3.1958,2.8095,2.2685,3.9521-.6167.7578-2.2685,1.5069-3.7846,1.7149-7.4224,1.0097-19.3496,1.8095-28.0889-.667Zm39.2808-8.5908c-8.3335-4.67-11.6739-7.6973-10.5376-9.5333.2949-.4667,1.5283-.8417,2.7949-.8417,9.2236,0,17.7851-5.8887,26.9228-5.8887,4.6465.0068,11.3589,6.4746,15.5215,8.4961,2.1841,1.0605,3.9951,2.4297,3.9951,3.0283,0,2.749-18.0879,9.373-25.8305,9.458-3.8081.0449-5.4668-.5625-12.8662-4.7187Zm220.6928-1.9043c-3.1494-2.0684-6.249-4.2227-8.9863-6.6622-1.4883-1.3261-1.4385-1.414,1.2549-1.9755,1.5527-.3252,5.8467-.1924,9.5537.292,12.1689,1.5937,22.9268-3.7999,33.3955,3.9521,2.1836,1.6201,3.751,3.2813,3.4053,3.6191-.3447.3487-4.417,1.7686-9.042,3.1553-7.2481,2.1719-14.4473,2.5615-21.9541,2.6094-2.4639-1.6777-5.0615-3.3067-7.627-4.9902Zm-36.039,2.0293c-5.1299-.7608-9.2315-1.8516-10.5176-2.8008-2.8233-2.0879-12.0791-13.0801-15.1826-18.0459-.586-.9375-1.5274-2.5-1.9707-3.7627,7.7461-1.6953,20.8974,5.4785,28.0078,8.1347,5.8047,2.17,8.1103,3.6387,13.6699,8.709,3.6992,3.3741,7.5,6.5313,8.4981,7.0664q1.8105.9678-.294,1.3575c-4.4189.8154-14.2158.5263-22.2109-.6582Zm-258.6929-6.5889c-2.377-2.3565-6.0342-6.8135-8.2031-10.0108l-3.9073-5.7617,1.0425-3.9551c1.1475-4.373,5.0337-11.2089,6.6934-11.7724.5464-.1826,1.4516.751,1.9692,2.0127,3.3687,8.3301,6.1914,13.0976,9.6465,16.2842,2.0977,1.9404,4.2095,4.7617,4.6187,6.1806,1.0424,3.6143.977,11.2481-.1075,13.291q-.8974,1.6827-4.1806-.1699c-1.7959-1.0146-5.2144-3.7646-7.5718-6.0986h0Zm212.0005-4.3369q-11.3565-4.1182-18.166-10.9082c-8.6709-8.6348-17.1602-23.0547-17.1602-29.1309,0-1.6299.1211-1.6113,3.9942.5879,2.1972,1.252,6.2617,3.6758,9.0429,5.3926,6.2285,3.8496,14.625,8.0615,20.3565,10.207,4.6767,1.75,6.0049,3.0762,11.2861,11.2383,1.8164,2.8027,4.9492,7.4033,7.0547,10.3467,2.1035,2.9443,3.7832,5.7119,3.7832,6.2275,0,1.8496-9.085.0684-20.1914-3.9609h0Zm136.289,2.1299c-1.1787-.3897-3.9511-1.128-6.3066-1.6817-4.5469-1.0635-7.9922-2.8887-7.9951-4.2295-.001-1.7217,11.2158-9.3398,12.8721-9.2539,9.7265.5039,18.7089,1.2168,28.2226-1.2187,4.7998-1.2286,8.9004-2.043,9.1299-1.8184,1.7822,1.7402-8.749,9.9346-21.1982,16.5-6.6504,3.5029-8.5899,3.7275-14.7247,1.7022Zm-233.6225-5.6485c-8.4976-3.1846-10.3433-4.1514-10.3433-5.3974.0869-4.7305,21.4361-10.3038,25.4429-12.3633.001-.002,7.3628-3.7871,7.3628-3.7871l3.4477,1.3535c4.7979,1.8789,15.0142,9.0156,14.5738,10.1748-2.4722,6.4951-17.7232,9.0459-23.4883,11.3623-5.8535,2.3535-7.4839,2.2236-16.9956-1.3428Zm-87.4932-5.3994c-17.063-3.6953-24.185-17.6865-24.0132-34.2344.1158-10.8515.8121-11.9394,7.6934-11.8945,13.6577.0898,27.3784.7871,40.8799,2.9297,14.4267,2.289,28.6343,3.8672,42.5425,8.5635,8.6694,2.9267,20.3354,5.165,27.9624,10.499l2.521,1.7656-2.3482,1.8926c-1.3017,1.0371-5.0498,2.915-8.3315,4.164-17.6875,6.7247-35.1406,15.8418-54.3433,17.2793-15.1499,1.1348-24.0703.8692-32.563-.9648Zm252.94-3.8965c-.0625-.0117-.125-.0215-.1875-.0322-14.502-2.5508-28.9668-5.7334-42.9121-10.5098-5.9483-2.0371-11.8204-4.3603-17.4375-7.1933-3.4834-1.7549-9.4922-3.4356-12.3233-5.6641l-2.3994-1.8916,2.0762-2.2695c2.9961-3.2832,16.7734-14.6309,19.373-15.961,1.9033-.9726,2.9453-.9179,7.9942.4219,5.5595,1.4785,10.4306,2.4912,31.9648,6.6758,20.5606,3.9941,40.7217,9.3867,61.4609,12.5635,6.0567.9267,12.0332,2.0771,13.3331,2.5664,2.1845.8203,2.2685,1.0127,1.1484,2.7334-4.2285,6.459-16.1006,11.2168-22.4756,15.1875-11.8779,7.3965-26.5107,5.6699-39.6152,3.373Zm-115.6436-8.7422c-9.6704-3.58-18.8071-10.1992-22.9433-16.6318-3.5708-5.5537-9.9434-18.2666-10.7393-21.4541-.5322-2.0879-.4326-2.1631,2.2612-1.6816,1.5674.2812,5.2593,1.5498,8.2891,2.8447,12.2851,5.2607,21.4863,9.4551,22.3765,10.1943.5463.457,1.2788,2.2715,1.6015,3.957.3179,1.6993,1.9268,5.9698,3.5342,9.42,2.5156,5.3857,6.1367,14.6611,6.1367,15.7324,0,.6172-6.2207-.791-10.5166-2.3809h0Zm194.8389-.4179c-.625-.5586,3.5351-6.3067,5.4726-7.5586,1.6094-1.041,3.7871-1.1534,12.9532-.6524,15.8955.8623,15.8164,2.8926-.252,6.5401-12.5351,2.8466-16.458,3.206-18.1738,1.6709h0Zm-377.2798-9.7344c-2.1709-5.8067-3.9019-13.3828-3.9019-17.0791,0-3.1856.5674-4.124,5.711-9.5069,5.5532-5.8046,12.622-10.1406,14.5674-8.9394.956.5898.5044,3.3027-1.8379,11.1269-.8848,2.9454-1.6099,7.0831-1.6099,9.128,0,2.0185-.6401,4.9834-1.3862,6.4365-2.4204,4.71-8.3897,12.3672-9.6328,12.3672-.3311,0-1.1929-1.6016-1.9097-3.5332h0Zm412.0239-6.1533c-2.2685-.6905-4.9472-1.252-5.9687-1.252-1.3145,0-3.3399-1.9756-6.9453-6.7734-2.7803-3.7022-5.086-7.0967-5.086-7.4864,0-.4033-.2226-1.3027-.5039-2.0615-.4433-1.1777.6328-1.3047,8.6211-1.0078,5.0488.1856,11.8154.375,15.1416.4199l6.0127.084,2.6943,4.416c1.4873,2.4414,4.3526,5.9766,6.3936,7.8985,4.208,3.957,4.4238,4.6924,1.7676,5.9804-2.8467,1.378-17.3272,1.2383-22.127-.2177h0Zm-560.1655-.5791c-1.459-2.1016-1.709-6.3057-.4961-8.2442.6113-.9648,2.1396-1.1933,6.5146-.9668,3.1187.1602,6.3799.6446,7.1548,1.0664,2.3345,1.2578,1.7671,3.6934-1.4282,6.1348-5.5537,4.2422-9.6992,4.9492-11.7451,2.0098h0Zm595.0845-4.6553c-6.0635-3.9736-11.2354-9.0068-12.083-11.75-.4444-1.4512-.1211-1.8545,1.8183-2.2529,3.7129-.7715,15.9824-2.1045,24.6465-2.6836l7.9941-.5293,8.5762,8.3457c9.8486,9.582,9.8486,9.6679-.7539,11.1582-3.3691.4756-6.2627,1.0781-6.5225,1.3574-.2578.2793-4.4531.3535-9.416.1699-8.8349-.333-9.0381-.3867-14.2597-3.8154h0Zm-71.3448,1.0674c-2.6943-.6992-6.4277-1.291-8.1591-1.291-3.2266,0-11.5293-3.6719-14.9795-6.6231-2.1817-1.873-5.7735-9.7021-4.6231-10.0918.961-.3242,26.4981,1.3477,32.8906,2.1543,3.7061.4688,4.045.6953,4.045,2.6983,0,1.1894,1.3437,4.7959,2.9453,7.9062,1.6015,3.1152,2.9375,5.7979,2.9375,5.8906,0,.8623-11.1055.3867-15.0567-.6435h0Zm-247.3354-6.001c-12.4483-4.1758-14.2578-5.0186-15.896-7.4053-1.0127-1.4707-3.5762-4.7099-5.6606-7.1513-4.9629-5.8038-6.8008-9.3155-5.3648-10.2413,1.3423-.8642,4.5459-.3632,19.6875,3.0762,14.3887,3.2656,15.0503,3.7168,19.604,13.3086,4.3897,9.2539,5.1294,13.1231,2.523,13.1231-.4678,0-7.1475-2.1163-14.8931-4.71h0Zm78.1558,1.5127c-1.1426-.8672-3.7071-3.8691-5.6036-6.5615-3.6777-5.2159-3.6933-6.1299-.1152-7.9991,1.1787-.6171,2.9883-.2773,6.9395,1.3106,2.9453,1.1816,6.83,2.1465,8.6621,2.1465,1.8545,0,5.1367.2402,7.4072.5469l4.0791.5449-6.6875,6.2265c-6.1426,5.7149-6.9316,6.1914-9.6328,5.8037-1.6016-.2275-3.9063-1.1513-5.0488-2.0185h0Zm124.8447-1.4873c-4.1221-.709-9.374-1.9072-11.6953-2.6641-6.5928-2.1533-14.7246-10.7402-16.7784-17.7217-.4746-1.5947-.2158-1.8496,1.8887-1.8496,1.3438,0,4.2949.5664,6.5664,1.2637,3.1084.958,21.1973,4.625,22.791,4.625.5674,0,7.8301,15.1416,7.8301,16.3213,0,1.6299-1.2637,1.6318-10.6025.0254h0Zm-459.9243-3.6026c-2.4419-1.8066-5.5826-3.7031-7.1031-4.289-1.5175-.584-2.7382-1.6318-2.7382-2.3574,0-.7246,1.811-3.1114,4.08-5.3838,3.8443-3.8448,4.3321-4.0811,8.4546-4.0811,3.0332,0,5.7193.6846,8.7495,2.2207,6.3936,3.2451,11.752,7.1387,10.9327,7.9463-1.2574,1.2539-15.7959,9.1221-16.9087,9.1533-.6099.0176-3.0245-1.4033-5.4668-3.209h0Zm619.6811-1.5742c-2.5224-1.2265-5.7324-3.6093-7.0625-5.2392-2.1328-2.6084-2.2685-3.1114-1.0986-3.9737,1.7392-1.2754,14.0508-3.4961,23.2246-4.1914,8.3242-.6308,12.0967.4043,13.3525,3.6631,1.2207,3.1983.9922,4.2119-1.4941,6.5244-6.1709,5.7422-18.6768,7.2383-26.9219,3.2168h0Zm-210.1465-5.1875c-9.3398-1.3799-12.0683-2.5879-14.8418-6.5722l-2.5781-3.7012,4.5899-4.584c3.1093-3.1133,5.2285-4.5732,6.6015-4.543,1.1133.0225,5.0488,1.2715,8.749,2.7754l6.7295,2.7325,3.0752,5.8496c1.6748,3.1953,3.333,6.7617,3.6573,7.8662l.5878,2.0166-5.7607-.5449c-3.1953-.3047-8.0088-.879-10.8096-1.295h0Zm-196.1899-.5468c-14.4668-1.8887-17.7647-3.043-21.0474-7.3711-1.4804-1.9571-5.3227-6.3086-8.6123-9.7598-5.8628-6.1397-6.8242-7.8106-3.4844-6.0293.9327.5,4.7979,1.2539,8.6626,1.6963,18.3453,2.0967,19.9419,2.5098,26.5064,6.8877,3.0381,2.0293,8.8486,8.8877,11.0776,13.0918.9688,1.8174.6167,2.1855-2.5864,2.6846-.3237.0507-5.0439-.4874-10.5161-1.2002h0Zm-183.4761-4.3946c-1.7109-1.3095-6.228-4.1894-10.0137-6.3818-9.6752-5.6065-9.8564-5.958-4.374-8.4678,5.9966-2.7441,13.0366-4.5156,20.357-5.123,5.8896-.4864,6.207-.4121,11.2773,2.6963,5.4653,3.3525,13.71,12.1992,13.7139,14.7197-.001,5.5195-28.2461,4.6347-30.9605,2.5566Zm134.0112-.914c-2.6079-.8614-4.3032-1.9317-4.4687-2.8204-.3438-1.8437,7.7505-9.9257,9.9355-9.9257,3.9571,0,14.3096,10.9824,13.167,13.9638-.4824,1.2666-1.3437,1.3584-7.4853.7998-3.7861-.3457-8.8506-1.2607-11.1485-2.0175h0Zm196.4419-.5469c-2.5507-.6953-7.6582-1.2637-11.3574-1.2637-9.1738,0-10.2363-.8535-5.8916-4.7353,4.5401-4.0596,15.2002-10.2842,18.7578-10.959,2.1905-.4131,4.085.0625,8.0381,2.0244,2.8584,1.418,6.5791,3.0176,8.3252,3.5742,1.7666.5654,3.1377,1.2695,3.1084,1.5996-.0859,1.0781-14.5098,11.0606-15.9375,11.0283-.2305-.0048-2.5234-.581-5.043-1.2685h0Zm-59.3129-.0508c-27.8038-6.125-55.6871-11.9023-83.2837-18.9219-5.5513-1.4121-11.8023-2.9062-13.8853-3.3222-2.103-.4219-4.9048-1.1866-6.3061-1.7246l-2.5289-.9668,4.6338-1.9776c4.1089-1.7578,5.8824-1.9804,15.9829-2.0029,18.648-.0449,30.3711,1.3584,49.2115,5.8926,12.6352,3.042,25.7666,4.5371,38.1948,8.3925,3.0518.9483,8.5835,2.2911,12.2832,2.9805,7.7353,1.4434,12.1826,2.7363,12.1553,3.5391-.0235.7529-3.3203,3.1582-9.125,6.6582-5.3145,3.2051-8.2437,3.4512-17.3325,1.4531Zm-227.566.5117c-.8266-.4375-2.2558-2.0625-3.1538-3.5742-.9131-1.541-4.3183-5.6816-7.6587-9.2988-3.332-3.6162-6.0107-7.043-6.0107-7.6963,0-1.3897,5.1289-2.2236,15.1426-2.46,5.976-.1386,6.5571.0137,10.9394,2.8789,2.5205,1.6543,8.4121,6.626,12.9517,10.9375l8.3242,7.9082-3.2744.9864c-4.0386,1.2099-25.0986,1.457-27.2603.3183h0Zm470.2754-4.457c0-1.0117.3301-2.4248.711-3.0303.5302-.8408.8476-.6299,1.2285.7998.8174,3.1133.6543,4.1221-.6826,4.1221-.7276,0-1.2569-.7979-1.2569-1.8916h0Zm-18.6777.7783c-.6455-.6318-2.8379-4.8584-4.8418-9.3193-3.6211-8.0752-3.6494-8.2051-2.6289-12.5352,1.4219-6.0556,3.457-10.6836,4.6904-10.6836,2.0772,0,10.999,7.4883,12.8291,10.7696,2.1983,3.9316,2.335,6.6445.625,12.2812-.6875,2.2715-1.25,5.125-1.25,6.3535,0,1.2588-.4433,2.666-1.0117,3.2383-1.3721,1.375-6.9824,1.3047-8.4121-.1045h0Zm-44.9668-1.875c-13.5791-3.5166-27.4795-5.7168-41.1846-8.6689-7.3232-1.5782-17.5517-2.0645-24.2236-5.7383-3.5244-1.9414,12.541-10.5684,14.0498-11.3106,12.1455-5.9668,26.124-11.3173,39.8057-11.4316,17.2392-.1445,26.3691,7.6025,33.8994,22.4707,3.2763,6.4785,5.9629,12.6855,5.9629,13.7969,0,2.542-1.0127,2.79-11.9463,2.9258-6.2354.0791-9.9688-.3887-16.3633-2.044Zm-354.2583-2.9004c.5459-5.9736,2.9014-11.124,7.4204-16.2373,3.9302-4.4404,9.0215-6.0937,16.6797-5.4062,5.5517.4961,14.6177,4.2656,14.2295,5.9111-.1421.6006-2.4131,3.0283-5.0205,5.3838-3.9805,3.5957-5.6748,4.5-10.4737,5.5937-7.9873,1.8164-11.7529,3.2666-17.498,6.7461-2.7725,1.6807-5.2148,3.0547-5.4243,3.0547-.2075,0-.1709-2.2705.0869-5.0459h0Zm-21.7515-3.6611c-2.8589-2.084-5.9472-4.8789-6.9814-6.3086l-1.8462-2.5664,2.271-.5703c2.3393-.5899,15.3057.1015,18.5898.9941,1.8247.4961,1.8301.544.3365,3.5723-.8326,1.6894-1.9961,4.584-2.5918,6.4355-1.4732,4.6289-1.5884,4.7481-3.2115,3.3867-.7978-.6699-3.707-2.8535-6.5664-4.9433h0Zm238.2705-8.791c-1.4365-1.5967-4.2089-7.7539-3.7197-8.2442.1358-.1406,3.1953.126,6.8164.5889,3.6113.4639,6.9024.6279,7.3194.3672.9111-.5733,4.2021.9805,4.2021,1.9892,0,.9942-5.3018,4.2715-9.167,5.6661q-3.8701,1.4004-5.4512-.3672h0Zm-26.1406.2109c-4.1225-.7139-8.1738-1.6484-8.957-2.0723-1.7031-.9091-9.5386-12.3554-11.2276-16.3925l-1.2285-2.9444h2.4444c6.8691.001,14.4272,3.7432,21.0302,5.4688,3.0244.791,5.92,1.7969,6.4795,2.2529.9776.7998,5.4307,9.8604,6.501,13.2246.5176,1.6192.2285,1.7666-3.4766,1.7666-2.205,0-7.4414-.5888-11.5654-1.3037Zm57.251-1.2051c-1.1777-.4619-2.1914-1.3593-2.1914-1.9502,0-1.1728,11.2773-9.7109,18.0888-13.7041l4.0362-2.3642,5.5527,1.3887c3.0313.7587,7.5645,1.6367,9.9707,1.9345,2.4414.3047,4.418.8877,4.418,1.3028,0,1.4882-5.6397,7.0371-10.0928,9.9433-3.8369,2.4981-5.6396,3.0996-10.5156,3.5195-9.8486.8477-16.9961.8204-19.2666-.0703h0Zm-102.8941-8.3515c-7.7846-2.3028-16.3203-7.586-27.1674-16.8321-8.92-7.5976-12.2041-11.1699-11.1905-12.1836,1.1055-1.1084,9.4239-.3261,16.2344,1.5293,17.4185,4.7364,30.3052,9.4414,32.2305,11.7618,3.1396,3.7871,9.8349,15.2421,9.8349,16.8261,0,1.4942-.4594,1.5664-7.1123,1.0938-3.8647-.2744-9.7124-1.2744-12.8296-2.1953h0Zm235.1812-4.9141c-1.0977-1.2871-4.252-4.2725-7.1113-6.7441-5.8828-5.0821-9.92-12.4102-9.46-17.1885.3731-3.8457,2.2266-3.8779,9.3818-.169,11.7735,6.1114,15.7305,9.8106,15.7305,14.7227,0,2.6924-4.209,11.6924-5.4668,11.6924-.6035,0-1.9961-1.0498-3.0742-2.3135h0Zm-341.0122,1.1641c-5.9683-1.625-15.5596-5.5821-15.5596-6.42,0-1.7363,6.3941-6.6582,12.8657-9.9082,11.4297-5.7304,10.7754-5.8261,22.8858,3.2735,5.8052,4.3594,10.4028,8.2744,10.2583,8.7363-.3599,1.1621-5.293,3.5137-9.418,4.4844-5.1284,1.2129-16.2905,1.125-21.0322-.166h0Zm60.5771-5.2442c-9.2607-.539-10.8618-.8965-19.2671-4.2734-8.7485-3.5176-17.8339-9.1543-19.8242-12.2979-.8193-1.3037-.5327-1.6904,2.0747-2.7685,3.6997-1.5313,13.1255-2.8125,20.9478-2.8438,5.5532-.0254,5.8682.0899,10.8467,3.8868,5.1279,3.9091,8.497,6.8437,15.3999,13.3925,4.0376,3.834,4.8916,6.71,1.7671,5.9473-1.0186-.25-6.3916-.7188-11.9449-1.043h0Zm186.8443-6.2968c-4.5479-.42-8.5196-.96-8.749-1.1895-.2442-.2402.25-1.1797,1.1562-2.1855,1.8105-2.0362,22.0605-12.0684,26.0176-12.8907,3.2617-.6836,12.9736,3.9707,17.0664,8.1797l2.8682,2.9414-2.0196,1.3467c-1.1201.749-4.626,2.2686-7.9004,3.4268-6.2656,2.2129-8.247,2.2392-28.4394.3711h0Zm51.9072-6.2803c-1.0137-.2061-2.0635-1.0459-2.3135-1.8506-.2588-.8164-2.3564-2.7842-4.7119-4.416-2.3555-1.6319-5.4316-3.918-6.8955-5.1328l-2.6514-2.1836,1.9317-1.0479c2.3926-1.289,15.3945-2.1357,20.6172-1.3379,3.9726.6065,4.0722.7022,6.5566,6.169,1.3809,3.0283,2.7383,6.834,2.9902,8.372l.459,2.8165-7.0683-.5049c-3.8643-.2754-7.9024-.6739-8.9141-.8838h0Z"/></svg>